<svg xmlns="http://www.w3.org/2000/svg" viewBox="0 0 64 64" role="img" aria-label="Slack">
  <path fill="#36C5F0" d="M22.5 6.5a5.3 5.3 0 1 0 0 10.6h5.3v-5.3a5.3 5.3 0 0 0-5.3-5.3zm0 14.2H8.3a5.3 5.3 0 1 0 0 10.6h14.2a5.3 5.3 0 0 0 0-10.6z"/>
  <path fill="#2EB67D" d="M57.5 26a5.3 5.3 0 1 0-10.6 0v5.3h5.3a5.3 5.3 0 0 0 5.3-5.3zm-14.2 0V11.8a5.3 5.3 0 1 0-10.6 0V26a5.3 5.3 0 0 0 10.6 0z"/>
  <path fill="#ECB22E" d="M41.5 57.5a5.3 5.3 0 1 0 0-10.6h-5.3v5.3a5.3 5.3 0 0 0 5.3 5.3zm0-14.2h14.2a5.3 5.3 0 1 0 0-10.6H41.5a5.3 5.3 0 0 0 0 10.6z"/>
  <path fill="#E01E5A" d="M6.5 38a5.3 5.3 0 1 0 10.6 0v-5.3h-5.3A5.3 5.3 0 0 0 6.5 38zm14.2 0v14.2a5.3 5.3 0 1 0 10.6 0V38a5.3 5.3 0 0 0-10.6 0z"/>
</svg>
